<?xml version="1.0" encoding="UTF-8"?>
<svg id="Layer_2" data-name="Layer 2" xmlns="http://www.w3.org/2000/svg" viewBox="0 0 100 100">
  <defs>
    <style>
      .cls-1 {
        fill: none;
      }

      .cls-1, .cls-2 {
        stroke-width: 0px;
      }

      .cls-2 {
        fill: #caddd0;
      }
    </style>
  </defs>
  <g id="Layer_1-2" data-name="Layer 1">
    <g>
      <path class="cls-1" d="m100,56.22v-.5c-.18.07-.36.14-.56.21.19.09.38.19.56.3Z"/>
      <path class="cls-1" d="m42.21,2.81c.89-.57,1.88-.84,2.79-1.26.71-.33,1.39-.71,2.08-1.07.09-.05.16-.16.19-.26.02-.07.04-.14.06-.21h-4.32c-.24.85-.49,1.7-.73,2.55-.02.07-.03.14-.06.25Z"/>
      <path class="cls-1" d="m91.95,42.14c.03-.07.05-.1.06-.15.48-1.67.96-3.34,1.44-5.02.02-.08.01-.18-.03-.25-.39-.74-.78-1.49-1.18-2.22-.48-.88-1.63-1.42-2.54-1.18-.69.18-1.22.56-1.4,1.3-.09.4.04.77.23,1.12,1.1,2.07,2.21,4.14,3.31,6.22.03.05.06.11.11.18Z"/>
      <path class="cls-1" d="m52.15,1.28c.09.02.15.03.22.06.4.14.82.25,1.21.42.39.17.66.5.72.94.03.22.02.45,0,.67-.03.26-.11.51-.17.79.74.19,1.39-.08,2.08-.37-.56.9-1.31,1.39-2.34,1.42-.08,0-.18.04-.23.09-.32.42-.74.73-1.23.92-.35.14-.71.27-1.1.41.78.37,1.44.86,2.01,1.53.18-.49.45-.89.82-1.2.38-.32.8-.52,1.29-.6.48-.08.94-.05,1.43.14-.07.02-.09.02-.11.03-.03,0-.06.01-.09.02-1.33.22-2.24.97-2.75,2.21-.03.08-.02.22.02.3.65,1.21.83,2.49.53,3.83-.08.38-.23.74-.34,1.1-.02,0-.04-.01-.06-.02,0-.11.02-.22.02-.34,0-.12.01-.24.01-.36-.03-1.83-.66-3.42-1.9-4.75-1.03-1.1-2.29-1.79-3.75-2.11-.08-.02-.2-.02-.25.03-.56.58-1.11,1.17-1.66,1.76-.26.29-.43.62-.37,1.04-.18-.61-.33-1.23.19-1.76.04-.04.07-.09.11-.14.47-.5.94-.99,1.41-1.49.5-.52.52-.53,1.16-.19.47.25.96.37,1.5.33.81-.07,1.57-.33,2.24-.77.76-.5,1.18-1.21,1.16-2.15-.01-.7-.44-1.16-1.13-1.21-.77-.06-1.55-.1-2.29-.35-.57-.19-1.14-.42-1.7-.65-.75-.3-1.45-.23-2.16.15-.65.35-1.31.66-1.98.98-.7.33-1.41.64-2.1.99-.56.28-.98.72-1.21,1.31-.16.42-.3.85-.39,1.28-.2.95-.19,1.92-.08,2.89.12,1.08.34,2.15.83,3.12,1.06,2.07,2.64,3.64,4.72,4.68,1.99.99,4.11,1.3,6.31,1.05,1.95-.22,3.74-.86,5.37-1.95.61-.41,1.09-.93,1.44-1.57.15-.27.28-.55.39-.83.55-1.41.71-2.89.72-4.39,0-1.02-.09-2.03-.13-3.05,0-.07.03-.15.04-.22.08-.32.21-.64.24-.96.09-1.16.16-2.33.23-3.49.02-.29-.01-.57-.07-.83h-3.75c-.06.86-.12,1.72-.16,2.58-.02.41-.05.82,0,1.22.21,1.52,1.84,2.36,3.22,1.68.04-.02.09-.04.17-.07-.05.08-.08.13-.11.18-.95,1.35-3.01,1.19-3.76-.29-.33-.65-.34-1.32-.14-2.01.08-.27.14-.55.16-.82.08-.82.14-1.64.2-2.46h-4.59c-.01.14-.02.27-.03.41-.02.29-.04.57-.06.87Z"/>
      <path class="cls-1" d="m97.14,43.43c.52-1.81,1.05-3.61,1.55-5.42.24-.88.04-1.68-.56-2.36-.55-.63-1.44-.85-2.15-.56-.64.27-1,.78-1.18,1.43-1.47,5.11-2.94,10.23-4.41,15.34-.02.07-.03.14-.06.25.89-.57,1.88-.84,2.79-1.26.71-.33,1.39-.71,2.08-1.07.09-.05.16-.16.19-.26.47-1.6.92-3.19,1.38-4.79.08-.26.15-.52.23-.78,0,0,.02,0,.03,0,0,.05,0,.1,0,.15-.07.88-.14,1.76-.21,2.64-.04.5-.1,1-.09,1.49,0,.69.39,1.14,1.06,1.3.51.12,1.03.08,1.54.02.05,0,.12-.09.13-.14.03-.31.06-.61.07-.92,0-.13-.02-.28-.08-.4-.75-1.43-1.51-2.86-2.28-4.29-.07-.12-.08-.23-.04-.36Z"/>
      <path class="cls-1" d="m51.21.24c.05,0,.12-.09.13-.14,0-.03,0-.06,0-.1h-2.19c.15.09.31.17.51.22.51.12,1.03.08,1.54.02Z"/>
      <path class="cls-1" d="m96.96,50.16c-.75-.3-1.45-.23-2.16.15-.65.35-1.31.66-1.98.98-.7.33-1.41.64-2.1.99-.56.28-.98.72-1.21,1.31-.16.42-.3.85-.39,1.28-.2.95-.19,1.92-.08,2.89.12,1.08.34,2.15.83,3.12,1.06,2.07,2.64,3.64,4.72,4.68,1.72.86,3.53,1.2,5.4,1.12v-9.14c-.97-.92-2.11-1.53-3.44-1.82-.08-.02-.2-.02-.25.03-.56.58-1.11,1.17-1.66,1.76-.26.29-.43.62-.37,1.04-.18-.61-.33-1.23.19-1.76.04-.04.07-.09.11-.14.47-.5.94-.99,1.41-1.49.5-.52.52-.53,1.16-.19.47.25.96.37,1.5.33.46-.04.91-.15,1.33-.31v-3.9c-.46-.05-.91-.12-1.34-.27-.57-.19-1.14-.42-1.7-.65Z"/>
      <path class="cls-1" d="m51.25,98.83c-.75-1.43-1.51-2.86-2.28-4.29-.07-.12-.08-.23-.04-.36.52-1.81,1.05-3.61,1.55-5.42.24-.88.04-1.68-.56-2.36-.55-.63-1.44-.85-2.15-.56-.64.27-1,.78-1.18,1.43-1.22,4.25-2.44,8.49-3.66,12.74h4.32c.44-1.51.87-3.02,1.31-4.54.08-.26.15-.52.23-.78,0,0,.02,0,.03,0,0,.05,0,.1,0,.15-.07.88-.14,1.76-.21,2.64-.04.5-.1,1-.09,1.49,0,.46.19.8.5,1.03h2.25c.03-.26.05-.52.06-.78,0-.13-.02-.28-.08-.4Z"/>
      <path class="cls-1" d="m44.03,85.25c-.48-.88-1.63-1.42-2.54-1.18-.69.18-1.22.56-1.4,1.3-.09.4.04.77.23,1.12,1.1,2.07,2.21,4.14,3.31,6.22.03.05.06.11.11.18.03-.07.05-.1.06-.15.48-1.67.96-3.34,1.44-5.02.02-.08.01-.18-.03-.25-.39-.74-.78-1.49-1.18-2.22Z"/>
      <path class="cls-1" d="m58.33,98.34c-.65.3-1.1.78-1.15,1.54,0,.04,0,.08,0,.12h3.73c-.09-.38-.25-.73-.52-1.05-.53-.65-1.38-.92-2.06-.61Z"/>
      <path class="cls-1" d="m56.89,97.78c0-.77-.27-1.46-.8-2.03-.65-.69-1.46-.85-2.34-.55-.83.28-1.27.92-1.35,1.77-.1,1.01-.16,2.02-.24,3.03h4.59c0-.06.01-.13.02-.19.05-.68.12-1.35.12-2.03Z"/>
      <path class="cls-1" d="m5.73,64.64c.61-.41,1.09-.93,1.44-1.57.15-.27.28-.55.39-.83.55-1.41.71-2.89.72-4.39,0-1.02-.09-2.03-.13-3.05,0-.07.03-.15.04-.22.08-.32.21-.64.24-.96.09-1.16.16-2.33.23-3.49.04-.72-.14-1.37-.6-1.94-.53-.65-1.38-.92-2.06-.61-.65.3-1.1.78-1.15,1.54-.06.91-.13,1.83-.18,2.74-.02.41-.05.82,0,1.22.21,1.52,1.84,2.36,3.22,1.68.04-.02.09-.04.17-.07-.05.08-.08.13-.11.18-.95,1.35-3.01,1.19-3.76-.29-.33-.65-.34-1.32-.14-2.01.08-.27.14-.55.16-.82.08-.9.15-1.8.22-2.7.05-.68.12-1.35.12-2.03,0-.77-.27-1.46-.8-2.03-.65-.69-1.46-.85-2.34-.55-.83.28-1.27.92-1.35,1.77-.03.31-.05.62-.07.92v3.5c.39.13.8.24,1.17.41.39.17.66.5.72.94.03.22.02.45,0,.67-.03.26-.11.51-.17.79.74.19,1.39-.08,2.08-.37-.56.9-1.31,1.39-2.34,1.42-.08,0-.18.04-.23.09-.32.42-.74.73-1.23.92,0,0,0,0,0,0v1.08c.33.25.63.54.91.87.18-.49.45-.89.82-1.2.38-.32.8-.52,1.29-.6.48-.08.94-.05,1.43.14-.07.02-.09.02-.11.03-.03,0-.06.01-.09.02-1.33.22-2.24.97-2.75,2.21-.03.08-.02.22.02.3.65,1.21.83,2.49.53,3.83-.08.38-.23.74-.34,1.1-.02,0-.04-.01-.06-.02,0-.11.02-.22.02-.34,0-.12.01-.24.01-.36-.03-1.71-.59-3.21-1.68-4.49v8.54c.12-.01.24-.02.36-.03,1.95-.22,3.74-.86,5.37-1.95Z"/>
      <path class="cls-1" d="m1.53,52.37c-.01-.7-.44-1.16-1.13-1.21-.13,0-.27-.02-.4-.03v3.6c.12-.07.25-.13.37-.21.76-.5,1.18-1.21,1.16-2.15Z"/>
      <path class="cls-1" d="m98.93,68.17c-1.84-.06-3.59-.46-5.27-1.23-2.18-1.01-3.85-2.56-5.07-4.62-.73-1.23-1.26-2.53-1.5-3.94-.27-1.62-.12-3.21.37-4.78.84-2.71,1.68-5.42,2.52-8.14.13-.4.25-.81.38-1.21.04-.13.03-.23-.04-.34-1.18-2.2-2.33-4.42-3.53-6.61-1-1.82-.2-4.02,1.75-4.85,1.62-.68,3.46-.2,4.45,1.17.21.28.36.61.53.91.04.08.09.15.13.24.03-.02.05-.03.07-.05,1.21-1.12,2.58-1.24,4.02-.58,1.4.64,2.15,1.78,2.15,3.35,0,.31-.07.62-.15.92-.46,1.63-.93,3.25-1.4,4.87-.04.14-.04.25.03.38.25.46.5.92.74,1.39.02.04.05.07.08.12.24-.35.51-.65.79-.91V0h-37.88c.06.38.07.78.05,1.17-.05,1.11-.13,2.22-.22,3.34-.02.23-.04.48-.13.69-.14.34-.11.67-.08,1.02.12,1.87.1,3.72-.27,5.57-.57,2.87-2.28,4.8-4.89,5.99-1.84.84-3.78,1.15-5.79,1.09-1.84-.06-3.59-.46-5.27-1.23-2.18-1.01-3.85-2.56-5.07-4.62-.73-1.23-1.26-2.53-1.5-3.94-.27-1.62-.12-3.21.37-4.78.45-1.43.89-2.87,1.33-4.3H0v43.85c.75-.47,1.62-.66,2.64-.46,1.7.32,2.62,1.48,3,3.07.34,0,.68-.02,1,0,1.51.12,2.75,1.22,3.05,2.7.08.42.09.87.07,1.3-.05,1.11-.13,2.22-.22,3.34-.02.23-.04.48-.13.69-.14.34-.11.67-.08,1.02.12,1.87.1,3.72-.27,5.57-.57,2.87-2.28,4.8-4.89,5.99-1.34.61-2.74.94-4.18,1.05v31.88h40.59c.39-1.26.78-2.53,1.18-3.79.12-.4.25-.81.38-1.21.04-.13.03-.23-.04-.34-1.18-2.2-2.33-4.42-3.53-6.61-1-1.82-.2-4.02,1.75-4.85,1.62-.68,3.46-.2,4.45,1.17.21.28.36.61.53.91.04.08.09.15.13.24.03-.02.05-.03.07-.05,1.21-1.12,2.58-1.24,4.02-.58,1.4.64,2.15,1.78,2.15,3.35,0,.31-.07.62-.15.92-.46,1.63-.93,3.25-1.4,4.87-.04.14-.04.25.03.38.25.46.5.92.74,1.39.02.04.05.07.08.12.97-1.4,2.28-2.1,3.98-1.78,1.7.32,2.62,1.48,3,3.07.34,0,.68-.02,1,0,1.51.12,2.75,1.22,3.05,2.7,0,.03,0,.05,0,.08h37.97v-31.85c-.36.01-.71.03-1.07.02Z"/>
      <path class="cls-2" d="m38.96,9.08c.24,1.42.77,2.71,1.5,3.94,1.22,2.06,2.9,3.61,5.07,4.62,1.67.77,3.43,1.17,5.27,1.23,2.01.06,3.95-.25,5.79-1.09,2.61-1.19,4.32-3.12,4.89-5.99.37-1.84.39-3.7.27-5.57-.02-.34-.06-.68.08-1.02.09-.21.11-.46.13-.69.08-1.11.16-2.22.22-3.34.02-.39,0-.79-.05-1.17h-1.12c.06.27.09.54.07.83-.07,1.16-.13,2.33-.23,3.49-.03.32-.16.64-.24.96-.02.07-.05.15-.04.22.04,1.02.13,2.03.13,3.05,0,1.5-.17,2.98-.72,4.39-.11.29-.25.56-.39.83-.35.64-.82,1.16-1.44,1.57-1.64,1.09-3.43,1.73-5.37,1.95-2.2.25-4.32-.06-6.31-1.05-2.08-1.04-3.66-2.6-4.72-4.68-.5-.97-.71-2.04-.83-3.12-.11-.97-.11-1.93.08-2.89.09-.44.23-.87.39-1.28.22-.59.65-1.03,1.21-1.31.69-.35,1.4-.65,2.1-.99.66-.32,1.33-.63,1.98-.98.71-.38,1.41-.45,2.16-.15.56.23,1.13.45,1.7.65.74.25,1.51.3,2.29.35.69.05,1.12.52,1.13,1.21.02.93-.41,1.65-1.16,2.15-.68.44-1.43.7-2.24.77-.53.05-1.03-.08-1.5-.33-.64-.34-.67-.33-1.16.19-.47.5-.94.99-1.41,1.49-.04.04-.07.09-.11.14-.52.54-.37,1.15-.19,1.76-.06-.42.1-.75.37-1.04.54-.6,1.1-1.18,1.66-1.76.04-.05.17-.05.25-.03,1.47.32,2.73,1.01,3.75,2.11,1.25,1.34,1.87,2.93,1.9,4.75,0,.12,0,.24-.01.36,0,.11-.02.22-.02.34.02,0,.04.01.06.02.12-.37.26-.73.34-1.1.3-1.34.11-2.62-.53-3.83-.04-.08-.05-.21-.02-.3.51-1.24,1.42-1.99,2.75-2.21.03,0,.06-.01.09-.02.02,0,.05-.01.11-.03-.49-.2-.96-.22-1.43-.14-.49.08-.91.28-1.29.6-.37.32-.64.71-.82,1.2-.57-.67-1.23-1.17-2.01-1.53.39-.14.74-.27,1.1-.41.49-.19.91-.5,1.23-.92.04-.06.15-.09.23-.09,1.03-.03,1.78-.52,2.34-1.42-.69.28-1.34.56-2.08.37.06-.28.13-.54.17-.79.03-.22.04-.45,0-.67-.06-.44-.32-.76-.72-.94-.39-.17-.81-.28-1.21-.42-.07-.02-.13-.03-.22-.06.02-.29.03-.58.06-.87.01-.14.02-.27.03-.41h-.9s0,.06,0,.1c0,.05-.08.14-.13.14-.52.07-1.03.1-1.54-.02-.2-.05-.36-.13-.51-.22h-1.84c-.02.07-.04.14-.06.21-.03.1-.11.21-.19.26-.69.37-1.37.74-2.08,1.07-.91.43-1.89.7-2.79,1.26.03-.11.04-.18.06-.25.24-.85.49-1.7.73-2.55h-2.34c-.44,1.43-.89,2.87-1.33,4.3-.49,1.57-.64,3.15-.37,4.78Z"/>
      <path class="cls-2" d="m56.47,3.29c-.2.69-.19,1.36.14,2.01.75,1.48,2.81,1.64,3.76.29.03-.05.06-.1.11-.18-.08.03-.12.05-.17.07-1.38.68-3-.16-3.22-1.68-.06-.4-.02-.82,0-1.22.05-.86.11-1.72.16-2.58h-.42c-.06.82-.12,1.64-.2,2.46-.03.28-.08.56-.16.82Z"/>
      <path class="cls-2" d="m1.67,62.94c0,.11-.02.22-.02.34.02,0,.04.01.06.02.12-.37.26-.73.34-1.1.3-1.34.11-2.62-.53-3.83-.04-.08-.05-.21-.02-.3.51-1.24,1.42-1.99,2.75-2.21.03,0,.06-.01.09-.02.02,0,.05-.01.11-.03-.49-.2-.96-.22-1.43-.14-.49.08-.91.28-1.29.6-.37.32-.64.71-.82,1.2-.28-.33-.58-.61-.91-.87v1.49c1.09,1.28,1.65,2.78,1.68,4.49,0,.12,0,.24-.01.36Z"/>
      <path class="cls-2" d="m1.23,54.59c.04-.06.15-.09.23-.09,1.03-.03,1.78-.52,2.34-1.42-.69.28-1.34.56-2.08.37.06-.28.13-.54.17-.79.03-.22.04-.45,0-.67-.06-.44-.32-.76-.72-.94-.38-.17-.78-.28-1.17-.41v.48c.13.01.27.02.4.03.69.05,1.12.52,1.13,1.21.02.93-.41,1.65-1.16,2.15-.12.08-.25.14-.37.21v.79s0,0,0,0c.49-.19.91-.5,1.23-.92Z"/>
      <path class="cls-2" d="m9.07,61.08c.37-1.84.39-3.7.27-5.57-.02-.34-.06-.68.08-1.02.09-.21.11-.46.13-.69.08-1.11.16-2.22.22-3.34.02-.43.02-.88-.07-1.3-.3-1.49-1.55-2.58-3.05-2.7-.33-.03-.66,0-1,0-.38-1.6-1.3-2.75-3-3.07-1.02-.19-1.89-.01-2.64.46v3.29c.03-.31.04-.62.07-.92.08-.86.52-1.49,1.35-1.77.88-.3,1.69-.14,2.34.55.53.57.8,1.26.8,2.03,0,.68-.07,1.36-.12,2.03-.07.9-.14,1.8-.22,2.7-.03.28-.08.56-.16.82-.2.69-.19,1.36.14,2.01.75,1.48,2.81,1.64,3.76.29.03-.05.06-.1.11-.18-.08.03-.12.05-.17.07-1.38.68-3-.16-3.22-1.68-.06-.4-.02-.82,0-1.22.05-.91.11-1.83.18-2.74.05-.76.5-1.25,1.15-1.54.68-.31,1.53-.04,2.06.61.46.56.64,1.22.6,1.94-.07,1.16-.13,2.33-.23,3.49-.03.32-.16.64-.24.96-.02.07-.05.15-.04.22.04,1.02.13,2.03.13,3.05,0,1.5-.17,2.98-.72,4.39-.11.29-.25.56-.39.83-.35.64-.82,1.16-1.44,1.57-1.64,1.09-3.43,1.73-5.37,1.95-.12.01-.24.02-.36.03v1.5c1.44-.11,2.84-.44,4.18-1.05,2.61-1.19,4.32-3.12,4.89-5.99Z"/>
      <path class="cls-2" d="m97.17,54.96c-.64-.34-.67-.33-1.16.19-.47.5-.94.99-1.41,1.49-.04.04-.07.09-.11.14-.52.54-.37,1.15-.19,1.76-.06-.42.1-.75.37-1.04.54-.6,1.1-1.18,1.66-1.76.04-.05.17-.05.25-.03,1.32.29,2.47.9,3.44,1.82v-1.3c-.18-.11-.36-.21-.56-.3.19-.07.37-.14.56-.21v-.74c-.42.16-.87.27-1.33.31-.53.05-1.03-.08-1.5-.33Z"/>
      <path class="cls-2" d="m99.13,45.05c-.25-.46-.49-.93-.74-1.39-.07-.13-.07-.24-.03-.38.47-1.62.94-3.24,1.4-4.87.08-.3.15-.62.15-.92,0-1.57-.74-2.7-2.15-3.35-1.44-.66-2.81-.54-4.02.58-.02.02-.04.03-.07.05-.05-.08-.09-.16-.13-.24-.18-.3-.32-.63-.53-.91-1-1.37-2.84-1.85-4.45-1.17-1.95.82-2.75,3.03-1.75,4.85,1.2,2.19,2.35,4.4,3.53,6.61.06.12.08.22.04.34-.13.4-.25.81-.38,1.21-.84,2.71-1.68,5.42-2.52,8.14-.49,1.57-.64,3.15-.37,4.78.24,1.42.77,2.71,1.5,3.94,1.22,2.06,2.9,3.61,5.07,4.62,1.67.77,3.43,1.17,5.27,1.23.36.01.72,0,1.07-.02v-1.48c-1.88.08-3.69-.26-5.4-1.12-2.08-1.04-3.66-2.6-4.72-4.68-.5-.97-.71-2.04-.83-3.12-.11-.97-.11-1.93.08-2.89.09-.44.23-.86.39-1.28.22-.59.65-1.03,1.21-1.31.69-.35,1.4-.65,2.1-.99.66-.32,1.33-.63,1.98-.98.71-.38,1.41-.45,2.16-.15.56.23,1.13.45,1.7.65.44.15.89.22,1.34.27v-6.82c-.29.26-.55.56-.79.91-.03-.04-.06-.08-.08-.12Zm-10.59-9.31c-.19-.35-.33-.72-.23-1.12.17-.74.71-1.12,1.4-1.3.91-.24,2.06.31,2.54,1.18.4.73.79,1.48,1.18,2.22.04.07.05.18.03.25-.47,1.67-.96,3.34-1.44,5.02-.01.04-.03.08-.06.15-.04-.07-.08-.12-.11-.18-1.1-2.07-2.21-4.15-3.31-6.22Zm11.01,12.73c0,.31-.04.61-.07.92,0,.05-.08.14-.13.14-.52.07-1.03.1-1.54-.02-.67-.16-1.06-.6-1.06-1.3,0-.5.05-1,.09-1.49.07-.88.14-1.76.21-2.64,0-.05,0-.1,0-.15,0,0-.02,0-.03,0-.08.26-.15.52-.23.78-.46,1.6-.92,3.2-1.38,4.79-.03.1-.11.21-.19.26-.69.37-1.37.74-2.08,1.07-.91.43-1.89.7-2.79,1.26.03-.11.04-.18.06-.25,1.47-5.11,2.94-10.23,4.41-15.34.19-.65.55-1.16,1.18-1.43.7-.3,1.59-.07,2.15.56.6.68.8,1.48.56,2.36-.5,1.81-1.03,3.62-1.55,5.42-.04.13-.03.24.04.36.76,1.43,1.53,2.86,2.28,4.29.06.12.08.26.08.4Z"/>
      <path class="cls-2" d="m48.52,98.97c0-.5.05-1,.09-1.49.07-.88.14-1.76.21-2.64,0-.05,0-.1,0-.15,0,0-.02,0-.03,0-.08.26-.15.52-.23.78-.44,1.51-.87,3.02-1.31,4.54h1.77c-.31-.23-.5-.57-.5-1.03Z"/>
      <path class="cls-2" d="m58.97,97.22c-.33-.03-.66,0-1,0-.38-1.6-1.3-2.75-3-3.07-1.7-.32-3,.38-3.98,1.78-.03-.04-.06-.08-.08-.12-.25-.46-.49-.93-.74-1.39-.07-.13-.07-.24-.03-.38.47-1.62.94-3.24,1.4-4.87.08-.3.15-.62.15-.92,0-1.57-.74-2.7-2.15-3.35-1.44-.66-2.81-.54-4.02.58-.02.02-.04.03-.07.05-.05-.08-.09-.16-.13-.24-.18-.31-.32-.63-.53-.91-1-1.37-2.84-1.85-4.45-1.17-1.95.82-2.75,3.03-1.75,4.85,1.2,2.19,2.35,4.4,3.53,6.61.06.12.08.22.04.34-.13.4-.25.81-.38,1.21-.39,1.26-.78,2.53-1.18,3.79h2.34c1.22-4.25,2.44-8.49,3.66-12.74.19-.65.55-1.16,1.18-1.43.7-.3,1.59-.07,2.15.56.6.68.8,1.48.56,2.36-.5,1.81-1.03,3.62-1.55,5.42-.04.13-.03.24.04.36.76,1.43,1.53,2.86,2.28,4.29.06.12.08.26.08.4,0,.26-.03.52-.06.78h.9c.07-1.01.14-2.02.24-3.03.08-.86.52-1.49,1.35-1.77.88-.3,1.69-.14,2.34.55.53.57.8,1.26.8,2.03,0,.68-.07,1.36-.12,2.03,0,.06-.01.13-.02.19h.42s0-.08,0-.12c.05-.76.5-1.25,1.15-1.54.68-.31,1.53-.04,2.06.61.26.32.42.68.52,1.05h1.12s0-.05,0-.08c-.3-1.49-1.55-2.58-3.05-2.7Zm-15.17-4.48s-.03.08-.06.15c-.04-.07-.08-.12-.11-.18-1.1-2.07-2.21-4.15-3.31-6.22-.19-.35-.33-.72-.23-1.12.17-.74.71-1.12,1.4-1.3.91-.24,2.06.31,2.54,1.18.4.73.79,1.48,1.18,2.22.04.07.05.18.03.25-.47,1.67-.96,3.34-1.44,5.02Z"/>
    </g>
  </g>
</svg>