<?xml version="1.0" encoding="UTF-8"?>
<svg id="Layer_2" data-name="Layer 2" xmlns="http://www.w3.org/2000/svg" xmlns:xlink="http://www.w3.org/1999/xlink" viewBox="0 0 244 112.23">
  <defs>
    <style>
      .cls-1 {
        fill: #007cb2;
        filter: url(#drop-shadow-1);
      }

      .cls-1, .cls-2 {
        stroke-width: 0px;
      }

      .cls-2 {
        fill: #00688c;
      }
    </style>
    <filter id="drop-shadow-1" filterUnits="userSpaceOnUse">
      <feOffset dx="0" dy="6"/>
      <feGaussianBlur result="blur" stdDeviation="2"/>
      <feFlood flood-color="#000" flood-opacity=".25"/>
      <feComposite in2="blur" operator="in"/>
      <feComposite in="SourceGraphic"/>
    </filter>
  </defs>
  <g id="Layer_1-2" data-name="Layer 1">
    <g>
      <rect class="cls-2" x="58.92" y="49.02" width="169.93" height="63.21" rx="18.83" ry="18.83"/>
      <path class="cls-1" d="m237.87,38.41c0,7.98-3.23,15.2-8.46,20.43s-12.45,8.46-20.43,8.46H71.54c-.55,0-1.09-.02-1.63-.05-6.7,5.8-15.43,9.31-24.98,9.31-21.07,0-38.15-17.08-38.15-38.15S23.86.27,44.93.27c9.55,0,18.28,3.51,24.98,9.31.54-.03,1.08-.05,1.63-.05h137.44c15.96,0,28.89,12.93,28.89,28.88Z"/>
    </g>
  </g>
</svg>