<?xml version="1.0" encoding="UTF-8"?>
<svg id="Layer_2" data-name="Layer 2" xmlns="http://www.w3.org/2000/svg" xmlns:xlink="http://www.w3.org/1999/xlink" viewBox="0 0 244 117.72">
  <defs>
    <style>
      .cls-1 {
        letter-spacing: .08em;
      }

      .cls-2 {
        fill: #fff;
        font-family: Modak, Modak;
        font-size: 33.7px;
      }

      .cls-3 {
        letter-spacing: .07em;
      }

      .cls-4 {
        fill: #007cb2;
        filter: url(#drop-shadow-1);
      }

      .cls-4, .cls-5 {
        stroke-width: 0px;
      }

      .cls-6 {
        letter-spacing: .1em;
      }

      .cls-5 {
        fill: #aa2410;
      }

      .cls-7 {
        letter-spacing: .07em;
      }
    </style>
    <filter id="drop-shadow-1" filterUnits="userSpaceOnUse">
      <feOffset dx="0" dy="6"/>
      <feGaussianBlur result="blur" stdDeviation="2"/>
      <feFlood flood-color="#000" flood-opacity=".25"/>
      <feComposite in2="blur" operator="in"/>
      <feComposite in="SourceGraphic"/>
    </filter>
  </defs>
  <g id="Layer_1-2" data-name="Layer 1">
    <g>
      <g>
        <rect class="cls-5" x="58.43" y="48.95" width="169.93" height="63.21" rx="18.83" ry="18.83"/>
        <path class="cls-4" d="m237.38,38.34c0,7.98-3.23,15.2-8.46,20.43s-12.45,8.46-20.43,8.46H71.05c-.55,0-1.09-.02-1.63-.05-6.7,5.8-15.43,9.31-24.98,9.31-21.07,0-38.15-17.08-38.15-38.15S23.37.2,44.44.2c9.55,0,18.28,3.51,24.98,9.31.54-.03,1.08-.05,1.63-.05h137.44c15.96,0,28.89,12.93,28.89,28.88Z"/>
      </g>
      <text class="cls-2" transform="translate(100.37 100.46)"><tspan class="cls-1" x="0" y="0">L</tspan><tspan class="cls-7" x="20.23" y="0">I</tspan><tspan class="cls-3" x="33.39" y="0">A</tspan><tspan class="cls-6" x="58" y="0">R</tspan><tspan class="cls-7" x="82.04" y="0">!</tspan></text>
    </g>
  </g>
</svg>