<?xml version="1.0" encoding="UTF-8"?>
<svg id="Layer_2" data-name="Layer 2" xmlns="http://www.w3.org/2000/svg" xmlns:xlink="http://www.w3.org/1999/xlink" viewBox="0 0 244 112.17">
  <defs>
    <style>
      .cls-1 {
        fill: #a34732;
      }

      .cls-1, .cls-2, .cls-3 {
        stroke-width: 0px;
      }

      .cls-2 {
        fill: #fff;
      }

      .cls-3 {
        fill: #c48373;
        filter: url(#drop-shadow-1);
      }
    </style>
    <filter id="drop-shadow-1" filterUnits="userSpaceOnUse">
      <feOffset dx="0" dy="6"/>
      <feGaussianBlur result="blur" stdDeviation="2"/>
      <feFlood flood-color="#000" flood-opacity=".25"/>
      <feComposite in2="blur" operator="in"/>
      <feComposite in="SourceGraphic"/>
    </filter>
  </defs>
  <g id="Layer_1-2" data-name="Layer 1">
    <g>
      <g>
        <rect class="cls-1" x="58.43" y="48.95" width="169.93" height="63.21" rx="18.83" ry="18.83"/>
        <path class="cls-3" d="m237.38,38.34c0,7.98-3.23,15.2-8.46,20.43s-12.45,8.46-20.43,8.46H71.05c-.55,0-1.09-.02-1.63-.05-6.7,5.8-15.43,9.31-24.98,9.31-21.07,0-38.15-17.08-38.15-38.15S23.37.2,44.44.2c9.55,0,18.28,3.51,24.98,9.31.54-.03,1.08-.05,1.63-.05h137.44c15.96,0,28.89,12.93,28.89,28.88Z"/>
      </g>
      <g>
        <path class="cls-2" d="m104.72,100.47c-1.22,0-2.16-.32-2.82-.97-.66-.65-1-1.62-1-2.93v-16.09c.58-.49,1.29-.87,2.13-1.14.84-.27,1.71-.4,2.61-.4,1.33,0,2.45.33,3.37.99,1,.75,1.5,1.78,1.5,3.09v9c-.61.06-1.22.23-1.81.52-.59.29-.89.59-.89.9,0,.19.1.35.31.48,1.09-.91,2.7-1.37,4.84-1.37h3.9c.72,1.27,1.09,2.57,1.09,3.9,0,.66-.12,1.39-.35,2.19s-.54,1.42-.92,1.84h-11.96Z"/>
        <path class="cls-2" d="m130.74,82.21v17c-.5.44-1.18.81-2.02,1.1-.85.3-1.87.44-3.08.44s-2.23-.27-3.08-.81c-.95-.58-1.43-1.4-1.43-2.47v-17c.5-.44,1.18-.81,2.02-1.1.84-.3,1.86-.44,3.06-.44s2.23.26,3.11.79c.94.6,1.42,1.43,1.42,2.48Z"/>
        <path class="cls-2" d="m141.25,94.58c-.11.15-.16.3-.16.43,0,.32.3.58.9.8s1.32.35,2.18.4c.14,1.58.3,2.48.46,2.7-.21.41-.78.81-1.73,1.23-.94.41-2.01.62-3.19.62-1.57,0-2.91-.34-4.03-1.01-1.12-.67-1.68-1.54-1.68-2.61,0-.28.03-.54.08-.76l3.5-15.66c.88-.56,1.92-1,3.14-1.32,1.22-.32,2.48-.48,3.8-.48,1.89,0,3.5.32,4.84.95,1.52.72,2.45,1.77,2.78,3.14l3.75,15.52c-1.14,1.48-3,2.22-5.58,2.22-1.25,0-2.31-.22-3.18-.67-.87-.45-1.37-1.09-1.51-1.92l-.36-2.01c.66-.01,1.29-.14,1.91-.38s.92-.49.92-.76c0-.18-.07-.32-.21-.43-.42.3-.93.52-1.53.67-.6.15-1.16.23-1.68.23-1.48,0-2.62-.3-3.42-.91Zm3.67-4.8c.19,0,.34-.04.48-.12-.29-1.67-.48-2.65-.58-2.96-.12-.32-.3-.48-.54-.48-.11,0-.24.03-.4.1l.62,3.32c.09.09.23.13.41.13Z"/>
        <path class="cls-2" d="m176.58,92.51l2.85,2.91c-.2,1.71-.74,3.03-1.62,3.95s-2.1,1.38-3.66,1.38c-1.17,0-2.19-.28-3.06-.84-1.11-.7-1.94-1.82-2.48-3.36l-.59-1.61c-.46-.01-1.04-.07-1.74-.18-.09.09-.13.21-.13.36,0,.3.44.47,1.33.53l.94,2.37v1.4c-1.26.89-2.88,1.33-4.85,1.33-1.42,0-2.54-.29-3.39-.87-.85-.58-1.27-1.43-1.27-2.53v-15.63c0-.48.44-.95,1.33-1.41.89-.46,2.05-.82,3.49-1.1,1.44-.28,2.87-.42,4.31-.42,3.29,0,5.86.67,7.72,2.02,1.95,1.42,2.93,3.41,2.93,5.97,0,1.47-.41,2.73-1.24,3.78-.83,1.05-1.87,1.77-3.13,2.18,0,.35.21.53.63.53s.97-.25,1.65-.76Zm-8.49-3.75s.17.05.38.05.37-.08.48-.25c.11-.16.16-.43.16-.81v-.59c0-.39-.05-.68-.14-.85-.09-.17-.25-.25-.46-.25s-.36.02-.44.07c.01.06.02.15.02.28v2.35Z"/>
        <path class="cls-2" d="m189.62,90.83c-.57-.25-1.08-.38-1.51-.38s-.66.2-.66.61v.07c1.25.09,2.31.59,3.18,1.5.87.92,1.3,2.01,1.3,3.29s-.47,2.38-1.4,3.32c-.94.92-2.07,1.38-3.37,1.38s-2.42-.46-3.35-1.39c-.93-.93-1.39-2.04-1.39-3.33,0-.88.22-1.69.67-2.43.44-.74,1.03-1.33,1.77-1.75-.66-1.14-1.18-2.45-1.58-3.93-.39-1.48-.59-3.02-.59-4.61v-5.36c.46-.33,1.06-.6,1.79-.81.74-.21,1.48-.31,2.24-.31,1.65,0,2.83.41,3.56,1.24s1.09,2.22,1.09,4.19v1.05c0,2.53-.58,5.08-1.74,7.65Z"/>
      </g>
    </g>
  </g>
</svg>