<?xml version="1.0" encoding="UTF-8"?>
<svg id="Layer_2" data-name="Layer 2" xmlns="http://www.w3.org/2000/svg" viewBox="0 0 769.02 540">
  <defs>
    <style>
      .cls-1 {
        fill: #0071bc;
      }

      .cls-1, .cls-2, .cls-3 {
        stroke-width: 0px;
      }

      .cls-4 {
        stroke: #005c84;
        stroke-width: 2px;
      }

      .cls-4, .cls-2 {
        fill: #005c84;
      }

      .cls-4, .cls-5 {
        stroke-miterlimit: 10;
      }

      .cls-5 {
        fill: #6fb289;
        stroke: #f2f2f2;
        stroke-width: 10px;
      }

      .cls-3 {
        fill: #0081c9;
      }
    </style>
  </defs>
  <g id="Layer_1-2" data-name="Layer 1">
    <g>
      <ellipse class="cls-2" cx="384.51" cy="270" rx="384.51" ry="270"/>
      <path class="cls-3" d="m769.02,270c0,149.12-172.15,242.33-384.51,242.33S0,419.12,0,270,172.15,0,384.51,0s384.51,120.88,384.51,270Z"/>
      <path class="cls-4" d="m735,268.78c0,135.92-156.92,220.89-350.49,220.89S34.02,404.7,34.02,268.78,190.94,22.67,384.51,22.67s350.49,110.19,350.49,246.11Z"/>
      <path class="cls-1" d="m735,268.78c0,135.92-156.92,220.89-350.49,220.89S34.02,404.7,34.02,268.78c0-92.19,163.43-230.44,357-230.44s343.98,134.02,343.98,230.44Z"/>
      <path class="cls-5" d="m706.01,268.38c0,124.68-143.94,202.62-321.5,202.62S63.01,393.06,63.01,268.38c0-84.57,149.91-211.38,327.47-211.38s315.52,122.94,315.52,211.38Z"/>
    </g>
  </g>
</svg>